<?xml version="1.0" encoding="utf-8"?>
<svg width="14px" height="14px" viewBox="0 0 14 14" version="1.1" xmlns:xlink="http://www.w3.org/1999/xlink" xmlns="http://www.w3.org/2000/svg">
  <defs>
    <path d="M10 0C12.2094 0 14 1.79056 14 4L14 10C14 12.2094 12.2094 14 10 14L4 14C1.79056 14 0 12.2094 0 10L0 4C0 1.79056 1.79056 0 4 0L10 0Z" id="path_1" />
    <path d="M0 0L9 0L9 12L0 12L0 0Z" id="path_2" />
    <clipPath id="clip_1">
      <use xlink:href="#path_1" />
    </clipPath>
    <clipPath id="clip_2">
      <use xlink:href="#path_2" />
    </clipPath>
  </defs>
  <g id="Group">
    <g id="Rectangle-3">
      <use stroke="none" fill="#009688" fill-opacity="0" xlink:href="#path_1" />
      <g clip-path="url(#clip_1)">
        <use xlink:href="#path_1" fill="none" stroke="#7F7F7F" stroke-width="2" />
      </g>
    </g>
    <g id="R" clip-path="url(#clip_2)" transform="translate(3 1)">
      <g fill="#7F7F7F" stroke="none" id="R">
        <path d="M2.682 4.32Q2.979 4.32 3.294 4.419Q3.609 4.518 3.8745 4.707Q4.14 4.896 4.302 5.1795Q4.464 5.463 4.464 5.841Q4.464 6.156 4.2885 6.453Q4.113 6.75 3.8385 6.975Q3.564 7.2 3.267 7.299Q3.501 7.686 3.717 8.01Q3.933 8.334 4.167 8.6535Q4.401 8.973 4.689 9.36Q4.878 9.612 5.0985 9.738Q5.319 9.864 5.679 9.891Q5.715 9.927 5.697 10.026Q5.679 10.125 5.67 10.143Q5.229 10.143 4.9365 10.1115Q4.644 10.08 4.509 10.035Q4.419 9.999 4.257 9.9225Q4.095 9.846 3.942 9.648Q3.888 9.576 3.744 9.369Q3.6 9.162 3.402 8.865Q3.204 8.568 2.979 8.2305Q2.754 7.893 2.547 7.569Q2.475 7.461 2.277 7.461L1.818 7.461L1.818 9.099Q1.818 9.126 1.818 9.153Q1.818 9.18 1.818 9.207Q1.818 9.378 1.8225 9.5175Q1.827 9.657 1.854 9.747Q1.872 9.792 1.998 9.828Q2.124 9.864 2.268 9.8775Q2.412 9.891 2.466 9.891Q2.493 9.927 2.4975 10.017Q2.502 10.107 2.466 10.143Q2.196 10.125 1.9485 10.1115Q1.701 10.098 1.44 10.098Q1.188 10.098 0.927 10.1115Q0.666 10.125 0.396 10.143Q0.36 10.107 0.3645 10.017Q0.369 9.927 0.396 9.891Q0.45 9.891 0.594 9.8775Q0.738 9.864 0.8685 9.828Q0.999 9.792 1.008 9.747Q1.044 9.639 1.0485 9.468Q1.053 9.297 1.053 9.099L1.044 5.346Q1.044 5.148 1.0395 4.9725Q1.035 4.797 0.999 4.689Q0.99 4.635 0.8595 4.608Q0.729 4.581 0.5895 4.5675Q0.45 4.554 0.396 4.554Q0.369 4.518 0.3645 4.428Q0.36 4.338 0.396 4.302Q0.666 4.311 0.9225 4.3245Q1.179 4.338 1.431 4.338Q1.692 4.338 1.9935 4.329Q2.295 4.32 2.682 4.32ZM3.645 5.922Q3.645 5.346 3.3345 4.977Q3.024 4.608 2.295 4.608Q2.214 4.608 2.0475 4.617Q1.881 4.626 1.854 4.689Q1.818 4.77 1.8135 4.9635Q1.809 5.157 1.809 5.355L1.818 7.191L2.286 7.191Q2.628 7.191 2.9385 7.0335Q3.249 6.876 3.447 6.5925Q3.645 6.309 3.645 5.922Z" />
      </g>
    </g>
  </g>
</svg>